<svg width="1065" height="440" viewBox="0 0 1065 440" fill="none" xmlns="http://www.w3.org/2000/svg">
<g clip-path="url(#clip0)">
<path d="M537.643 428.231C828.974 428.231 1065.14 412.596 1065.14 393.309C1065.14 374.023 828.974 358.388 537.643 358.388C246.313 358.388 10.1434 374.023 10.1434 393.309C10.1434 412.596 246.313 428.231 537.643 428.231Z" fill="#E6E6E6"/>
<path d="M517.426 11.0097C431.482 11.0097 369.775 66.1491 369.775 194.808C369.775 340.621 431.482 379.218 517.426 379.218C603.37 379.218 668.753 336.945 668.753 194.808C668.753 42.868 603.37 11.0097 517.426 11.0097ZM517.991 330.818C458.464 330.818 427.365 295.895 427.365 194.902C427.365 105.79 459.737 58.7972 519.264 58.7972C578.791 58.7972 611.163 89.665 611.163 194.902C611.163 293.349 577.517 330.818 517.991 330.818Z" fill="#660B10"/>
<path d="M537.031 -0.0181274C451.087 -0.0181274 389.38 55.1212 389.38 183.78C389.38 329.593 451.087 368.19 537.031 368.19C622.975 368.19 688.358 325.917 688.358 183.78C688.358 31.8402 622.975 -0.0181274 537.031 -0.0181274ZM537.596 319.79C478.069 319.79 446.97 284.867 446.97 183.874C446.97 94.7621 479.342 47.7693 538.869 47.7693C598.396 47.7693 630.768 78.6371 630.768 183.874C630.768 282.321 597.123 319.79 537.596 319.79V319.79Z" stroke="#EA6067" stroke-miterlimit="10"/>
<path d="M477.946 185.116C487.335 185.116 494.946 175.266 494.946 163.116C494.946 150.965 487.335 141.116 477.946 141.116C468.557 141.116 460.946 150.965 460.946 163.116C460.946 175.266 468.557 185.116 477.946 185.116Z" fill="#660B10"/>
<path d="M570.446 185.616C579.835 185.616 587.446 175.766 587.446 163.616C587.446 151.465 579.835 141.616 570.446 141.616C561.057 141.616 553.446 151.465 553.446 163.616C553.446 175.766 561.057 185.616 570.446 185.616Z" fill="#660B10"/>
<path d="M557.446 228.616C557.446 238.556 543.566 246.616 526.446 246.616C509.326 246.616 495.446 238.556 495.446 228.616C495.446 220.006 505.856 212.806 519.766 211.046C521.981 210.753 524.212 210.61 526.446 210.616C530.189 210.603 533.922 211.006 537.576 211.816C549.196 214.406 557.446 220.956 557.446 228.616Z" fill="#660B10"/>
<path d="M481.946 180.116C491.335 180.116 498.946 170.266 498.946 158.116C498.946 145.965 491.335 136.116 481.946 136.116C472.557 136.116 464.946 145.965 464.946 158.116C464.946 170.266 472.557 180.116 481.946 180.116Z" stroke="#EA6067" stroke-miterlimit="10"/>
<path d="M574.446 180.616C583.835 180.616 591.446 170.766 591.446 158.616C591.446 146.465 583.835 136.616 574.446 136.616C565.057 136.616 557.446 146.465 557.446 158.616C557.446 170.766 565.057 180.616 574.446 180.616Z" stroke="#EA6067" stroke-miterlimit="10"/>
<path d="M530.446 241.616C547.567 241.616 561.446 233.557 561.446 223.616C561.446 213.674 547.567 205.616 530.446 205.616C513.325 205.616 499.446 213.674 499.446 223.616C499.446 233.557 513.325 241.616 530.446 241.616Z" stroke="#EA6067" stroke-miterlimit="10"/>
<path d="M537.946 213.316C537.954 214.573 537.482 215.786 536.626 216.708C536.222 217.149 535.73 217.502 535.183 217.744C534.636 217.986 534.044 218.113 533.446 218.116H523.446C522.214 218.073 521.049 217.544 520.205 216.644C519.362 215.745 518.909 214.548 518.946 213.316C518.941 212.341 519.226 211.386 519.766 210.574C521.979 210.263 524.211 210.109 526.446 210.116C530.193 210.103 533.929 210.533 537.576 211.396C537.823 212.005 537.948 212.658 537.946 213.316V213.316Z" fill="white"/>
<path d="M481.946 157.116C484.707 157.116 486.946 154.877 486.946 152.116C486.946 149.354 484.707 147.116 481.946 147.116C479.185 147.116 476.946 149.354 476.946 152.116C476.946 154.877 479.185 157.116 481.946 157.116Z" fill="white"/>
<path d="M574.946 157.116C577.707 157.116 579.946 154.877 579.946 152.116C579.946 149.354 577.707 147.116 574.946 147.116C572.185 147.116 569.946 149.354 569.946 152.116C569.946 154.877 572.185 157.116 574.946 157.116Z" fill="white"/>
<path opacity="0.3" d="M579.946 204.116C582.707 204.116 584.946 201.877 584.946 199.116C584.946 196.354 582.707 194.116 579.946 194.116C577.185 194.116 574.946 196.354 574.946 199.116C574.946 201.877 577.185 204.116 579.946 204.116Z" fill="#E51A24"/>
<path opacity="0.3" d="M457.946 204.116C460.707 204.116 462.946 201.877 462.946 199.116C462.946 196.354 460.707 194.116 457.946 194.116C455.185 194.116 452.946 196.354 452.946 199.116C452.946 201.877 455.185 204.116 457.946 204.116Z" fill="#E51A24"/>
<path d="M318.311 277.517H282.777V172.877C282.777 167.32 280.569 161.989 276.639 158.059C272.709 154.129 267.379 151.921 261.821 151.921H253.495C250.743 151.921 248.018 152.464 245.475 153.517C242.933 154.57 240.623 156.113 238.677 158.059C236.731 160.005 235.187 162.315 234.134 164.858C233.081 167.4 232.539 170.125 232.539 172.877V277.517H132.309C130.247 277.517 128.22 276.984 126.425 275.97C124.629 274.955 123.127 273.494 122.062 271.728C120.998 269.962 120.408 267.951 120.35 265.89C120.292 263.829 120.768 261.788 121.731 259.965L227.814 59.1844C229.136 56.6811 229.938 53.9359 230.17 51.1143C230.402 48.2927 230.061 45.4533 229.165 42.7675C228.27 40.0817 226.84 37.6051 224.961 35.4873C223.082 33.3695 220.793 31.6544 218.233 30.4455L211.971 27.4883C207.108 25.1921 201.549 24.853 196.444 26.5413C191.338 28.2295 187.077 31.8159 184.542 36.5583L55.1602 278.591C52.957 282.712 51.8043 287.314 51.8043 291.987V291.987C51.8043 295.719 52.5393 299.414 53.9673 302.861C55.3954 306.309 57.4885 309.441 60.1271 312.08C62.7658 314.719 65.8983 316.812 69.3459 318.24C72.7935 319.668 76.4885 320.403 80.2202 320.403H232.539V386.57C232.539 389.869 233.189 393.135 234.451 396.183C235.713 399.23 237.564 401.999 239.896 404.332C242.229 406.664 244.998 408.515 248.045 409.777C251.093 411.039 254.359 411.689 257.658 411.689H257.658C260.957 411.689 264.223 411.039 267.271 409.777C270.318 408.515 273.087 406.664 275.42 404.332C277.752 401.999 279.603 399.23 280.865 396.183C282.127 393.135 282.777 389.869 282.777 386.57V320.403H318.311C323.998 320.403 329.452 318.144 333.474 314.122C337.495 310.101 339.754 304.647 339.754 298.96V298.96C339.754 293.273 337.495 287.819 333.474 283.797C329.453 279.776 323.998 277.517 318.311 277.517V277.517Z" fill="#E51A24"/>
<path d="M328.114 265.264H292.58V160.624C292.58 157.872 292.038 155.147 290.984 152.605C289.931 150.062 288.388 147.752 286.442 145.806C284.496 143.86 282.186 142.317 279.643 141.263C277.101 140.21 274.376 139.668 271.624 139.668H263.297C257.74 139.668 252.409 141.876 248.479 145.806C244.549 149.736 242.341 155.066 242.341 160.624V265.264H142.111C140.049 265.264 138.023 264.731 136.227 263.716C134.432 262.702 132.929 261.241 131.865 259.475C130.801 257.709 130.211 255.698 130.153 253.637C130.095 251.576 130.571 249.535 131.534 247.712L237.616 46.9312C238.939 44.428 239.74 41.6827 239.973 38.8611C240.205 36.0395 239.863 33.2001 238.968 30.5143C238.072 27.8285 236.642 25.3519 234.763 23.2341C232.884 21.1163 230.596 19.4012 228.036 18.1923L221.773 15.2351C216.911 12.9389 211.352 12.5998 206.246 14.2881C201.141 15.9763 196.879 19.5627 194.344 24.3051L64.9627 266.338C62.7595 270.459 61.6069 275.06 61.6069 279.734V279.734C61.6069 287.27 64.6007 294.498 69.9297 299.827C75.2587 305.156 82.4864 308.15 90.0227 308.15H242.341V374.317C242.341 377.616 242.991 380.882 244.254 383.93C245.516 386.977 247.366 389.746 249.699 392.079C252.031 394.411 254.8 396.262 257.848 397.524C260.895 398.786 264.162 399.436 267.46 399.436H267.461C274.122 399.436 280.512 396.789 285.222 392.079C289.933 387.368 292.58 380.979 292.58 374.317V308.15H328.114C330.93 308.15 333.718 307.595 336.32 306.517C338.921 305.44 341.285 303.86 343.276 301.869C345.268 299.878 346.847 297.514 347.925 294.913C349.002 292.311 349.557 289.523 349.557 286.707V286.707C349.557 283.891 349.002 281.102 347.925 278.501C346.847 275.899 345.268 273.535 343.276 271.544C341.285 269.553 338.921 267.973 336.32 266.896C333.718 265.818 330.93 265.264 328.114 265.264V265.264Z" stroke="#EA6067" stroke-miterlimit="10"/>
<path d="M976.308 277.517H940.774V172.877C940.774 167.319 938.566 161.989 934.636 158.059C930.706 154.129 925.376 151.921 919.818 151.921H911.491C908.739 151.921 906.014 152.464 903.472 153.517C900.929 154.57 898.619 156.113 896.673 158.059C894.727 160.005 893.184 162.315 892.131 164.858C891.077 167.4 890.535 170.125 890.535 172.877V277.517H790.305C788.243 277.517 786.216 276.984 784.421 275.97C782.626 274.955 781.123 273.494 780.059 271.728C778.995 269.962 778.405 267.951 778.347 265.89C778.289 263.829 778.764 261.788 779.728 259.965L885.81 59.1844C887.133 56.6812 887.934 53.9359 888.167 51.1143C888.399 48.2927 888.057 45.4533 887.162 42.7675C886.266 40.0817 884.836 37.6051 882.957 35.4873C881.078 33.3695 878.79 31.6544 876.23 30.4455L869.967 27.4883C865.105 25.1921 859.546 24.853 854.44 26.5413C849.334 28.2295 845.073 31.8159 842.538 36.5583L713.157 278.591C710.953 282.712 709.801 287.314 709.801 291.987V291.987C709.801 299.523 712.795 306.751 718.124 312.08C723.453 317.409 730.68 320.403 738.217 320.403H890.535V386.57C890.535 393.232 893.182 399.621 897.893 404.332C902.603 409.043 908.992 411.689 915.654 411.689V411.689C922.316 411.689 928.706 409.043 933.416 404.332C938.127 399.621 940.773 393.232 940.773 386.57V320.403H976.308C981.995 320.403 987.449 318.144 991.47 314.122C995.492 310.101 997.751 304.647 997.751 298.96V298.96C997.751 293.273 995.492 287.819 991.47 283.797C987.449 279.776 981.995 277.517 976.308 277.517Z" fill="#E51A24"/>
<path d="M994.688 265.264H959.153V160.624C959.153 155.066 956.945 149.736 953.016 145.806C949.086 141.876 943.755 139.668 938.197 139.668H929.871C927.119 139.668 924.394 140.21 921.852 141.263C919.309 142.317 916.999 143.86 915.053 145.806C913.107 147.752 911.564 150.062 910.51 152.605C909.457 155.147 908.915 157.872 908.915 160.624V265.264H808.685C806.623 265.264 804.596 264.731 802.801 263.716C801.006 262.702 799.503 261.241 798.439 259.475C797.374 257.709 796.785 255.698 796.727 253.637C796.669 251.576 797.144 249.535 798.108 247.712L904.19 46.9312C905.512 44.428 906.314 41.6827 906.546 38.8611C906.779 36.0395 906.437 33.2001 905.542 30.5143C904.646 27.8285 903.216 25.3519 901.337 23.2341C899.458 21.1163 897.17 19.4012 894.61 18.1923L888.347 15.2351C883.485 12.9389 877.925 12.5998 872.82 14.2881C867.714 15.9763 863.453 19.5627 860.918 24.3051L731.536 266.338C729.333 270.459 728.181 275.06 728.181 279.734C728.181 287.27 731.174 294.498 736.503 299.827C741.832 305.156 749.06 308.15 756.596 308.15H908.915V374.317C908.915 380.979 911.562 387.368 916.272 392.079C920.983 396.789 927.372 399.436 934.034 399.436V399.436C940.696 399.436 947.085 396.789 951.796 392.079C956.507 387.368 959.153 380.979 959.153 374.317V308.15H994.688C997.504 308.15 1000.29 307.595 1002.89 306.517C1005.49 305.44 1007.86 303.86 1009.85 301.869C1011.84 299.878 1013.42 297.514 1014.5 294.913C1015.58 292.311 1016.13 289.523 1016.13 286.707V286.707C1016.13 281.02 1013.87 275.565 1009.85 271.544C1005.83 267.523 1000.37 265.264 994.688 265.264V265.264Z" stroke="#EA6067" stroke-miterlimit="10"/>
</g>
<defs>
<clipPath id="clip0">
<rect width="1065" height="440" fill="white"/>
</clipPath>
</defs>
</svg>
